<?xml version="1.0" encoding="utf-8"?>
<!-- Generator: Adobe Illustrator 24.2.1, SVG Export Plug-In . SVG Version: 6.00 Build 0)  -->
<svg version="1.1" id="Calque_1" xmlns="http://www.w3.org/2000/svg" xmlns:xlink="http://www.w3.org/1999/xlink" x="0px" y="0px"
	 viewBox="0 0 41.1 59.9" style="enable-background:new 0 0 41.1 59.9;" xml:space="preserve">
<style type="text/css">
	.st0{fill:none;}
</style>
<g>
	<path class="st0" d="M19.6,3.2c-0.8,7.3-5.6,14.2-9.9,20.3C5.7,29.3,2,34.7,2,39.4c0,10.2,8.3,18.5,18.5,18.5s18.5-8.3,18.5-18.5
		C39.1,23.8,24.5,8,19.6,3.2z M23.7,53.7c-0.1,0-0.2,0-0.3,0c-0.4,0-0.8-0.3-1-0.7c-0.1-0.5,0.2-1.1,0.7-1.2c7.5-2,12-9.8,10-17.4
		c-0.1-0.5,0.2-1.1,0.7-1.2c0.5-0.1,1.1,0.2,1.2,0.7C37.4,42.5,32.3,51.4,23.7,53.7z"/>
	<path d="M30.2,12.4C24.9,5.2,19.6,0.5,19.4,0.3c-0.3-0.3-0.7-0.3-1.1-0.2C18,0.2,17.7,0.6,17.7,1c0,7.5-4.9,14.6-9.7,21.4
		c-4.2,6-8.1,11.7-8.1,17c0,11.3,9.2,20.5,20.5,20.5s20.5-9.2,20.5-20.5C41.1,29.2,35.2,19.1,30.2,12.4z M20.5,57.9
		C10.3,57.9,2,49.6,2,39.4c0-4.7,3.7-10.1,7.7-15.8c4.3-6.2,9.1-13.1,9.9-20.3C24.5,8,39.1,23.8,39.1,39.4
		C39.1,49.6,30.8,57.9,20.5,57.9z"/>
	<path d="M35.1,33.9c-0.1-0.5-0.7-0.8-1.2-0.7c-0.5,0.1-0.8,0.7-0.7,1.2c2,7.5-2.5,15.3-10,17.4c-0.5,0.1-0.8,0.7-0.7,1.2
		c0.1,0.4,0.5,0.7,1,0.7c0.1,0,0.2,0,0.3,0C32.3,51.4,37.4,42.5,35.1,33.9z"/>
</g>
</svg>
