<?xml version="1.0" encoding="utf-8"?>
<!-- Generator: Adobe Illustrator 24.2.1, SVG Export Plug-In . SVG Version: 6.00 Build 0)  -->
<svg version="1.1" id="Calque_1" xmlns="http://www.w3.org/2000/svg" xmlns:xlink="http://www.w3.org/1999/xlink" x="0px" y="0px"
	 viewBox="0 0 82 63.4" style="enable-background:new 0 0 82 63.4;" xml:space="preserve">
<path d="M0.6,55.6c0.5,0.2,1.1,0,1.3-0.5c0,0,0,0,0,0c0,0,0.2-0.4,0.5-1c1.8-3.5,8.4-15.5,18.9-19.3c5.2-1.9,10.6-1.5,16.1,1.1
	c1.3,0.6,2.5,1.2,3.8,1.8c21.1,9.6,33.4,9.4,39.6-0.3c1.4-2.6,1.7-5.7,0.8-8.6c-0.8-3.1-3-5.7-5.9-7.1c-5.9-2.5-12.8,0.4-15.2,6.3
	c-0.1,0.3-0.2,0.6-0.3,0.9c-0.1,0.2-0.1,0.5,0,0.8c0.1,0.3,0.3,0.5,0.6,0.5c0.5,0.2,1.1-0.1,1.3-0.6c0.9-2.7,2.8-4.9,5.4-6
	c2.4-1,5-1,7.4-0.1c2.4,1.1,4.2,3.3,4.8,5.8c0.8,2.3,0.6,4.8-0.5,6.9c-5.4,8.5-16.4,8.6-35.4,0.3c-1.7-0.8-3.5-1.6-5.4-2.5
	c-6-2.9-12-3.3-17.7-1.2C7.6,37.7,0.4,53.6,0.1,54.3C-0.1,54.8,0.1,55.4,0.6,55.6z"/>
<path d="M18.8,47.1c-2.6,2-5,4.3-6.9,7c-0.3,0.5-0.2,1.1,0.3,1.4c0.5,0.3,1.1,0.2,1.4-0.3c0,0,0.2-0.3,0.5-0.7
	c1.6-2,6.9-8.3,14.1-9.6c4.2-0.7,8.3,0.3,12.2,3.2c1.9,1.4,3.9,2.6,6,3.7c-0.3,0.2-0.6,0.5-0.9,0.8c-1.4,1.3-2.6,2.8-3.5,4.5l-2,0.3
	c-0.6,0-1,0.5-0.9,1.1c0,0.6,0.5,1,1.1,0.9l0,0h0.2l2-0.3c3.1,2.8,6.2,4.2,9.3,4.2c0.5,0,1.1,0,1.6-0.1c4.4-0.7,7.5-4.1,9-6.2
	c1.1,0.1,2.3,0.2,3.4,0.2c2.4,0,4.9-0.3,7.2-1c3.7-1.1,6.5-3.1,7.3-5.4c0.2-0.5,0-1.1-0.5-1.3c-0.5-0.2-1.1,0-1.3,0.5
	c0,0,0,0.1-0.1,0.1c-0.1,0.2-0.1,0.3-0.2,0.4c-0.7,1.2-2.5,2.7-5.8,3.7c-2.9,0.8-6,1.1-9,0.8c0.1-0.4,0-0.7-0.3-1
	c-1-0.9-2.2-1.7-3.4-2.4C57,50.1,54,49.5,51,49.9c-0.9,0.1-1.8,0.4-2.7,0.8c-2.4-1.2-4.6-2.6-6.8-4.2c-3.7-2.8-8.2-4.1-12.8-3.6
	c-0.3,0-0.6,0.1-0.9,0.1C24.5,43.7,21.5,45.1,18.8,47.1z M51.3,51.8c4.2-0.7,8.2,2.1,9.7,3.3c-1,1.6-4,5.4-8.2,6.1
	c-2.6,0.4-5.2-0.5-7.9-2.6l10-1.6c0.6-0.1,0.9-0.6,0.8-1.2c-0.1-0.6-0.6-0.9-1.2-0.8l-10,1.6C46.5,53.9,48.7,52.3,51.3,51.8z"/>
<path d="M2.5,39.9c0.6,0,0.9-0.3,2-1.7L5,37.7c3.4-4,11.7-13.4,23.1-11.9c1.1,0.2,2.2,0.4,3.3,0.7c17.6,5.5,21-0.5,21.3-1.1
	c1.3-2.2,1.4-4.9,0.1-7.1c-1.3-2.2-3.7-3.6-6.3-3.7l0,0c-2.7,0.1-5.1,1.6-6.3,4.1c-0.2,0.3-0.2,0.6,0,0.9c0.1,0.2,0.2,0.3,0.4,0.4
	c0.5,0.3,1.1,0.1,1.4-0.4c0.8-1.8,2.6-3,4.6-3l0,0c1.8,0.1,3.5,1,4.5,2.6c0.9,1.6,0.9,3.6-0.1,5.2c0,0-3,5.2-18.9,0.2l-1.1-0.3
	C16.4,20.5,6.3,32.8,2.9,37C2.6,37.4,2.2,37.9,2,38c-0.5,0.3-0.7,0.9-0.4,1.3C1.7,39.7,2.1,39.9,2.5,39.9L2.5,39.9z"/>
<path d="M21.6,13.4c0.1,0,0.3,0,0.4-0.1l1.9-0.9c2.2,1.2,4.6,1.8,7.1,1.9c1.5,0,3.1-0.3,4.4-1c5.7-2.7,7.4-10,7.5-10.3
	c0.1-0.4-0.1-0.9-0.5-1.1c-0.3-0.1-7-3.5-12.7-0.8c-3.3,1.6-5.5,4.8-6.7,9.5l-1.9,0.9c-0.5,0.2-0.7,0.8-0.5,1.3c0,0,0,0,0,0
	C20.8,13.2,21.2,13.4,21.6,13.4z M30.6,2.9c3.8-1.8,8.4-0.3,10.2,0.5c-0.5,1.8-2.3,6.4-6.1,8.2c-2.3,1.1-5.2,1-8.3-0.2L35.4,7
	c0.5-0.2,0.7-0.8,0.5-1.3c0,0,0,0,0,0c-0.2-0.5-0.8-0.7-1.3-0.5l-9.1,4.3C26.5,6.2,28.2,4,30.6,2.9L30.6,2.9z"/>
</svg>
