<?xml version="1.0" encoding="utf-8"?>
<!-- Generator: Adobe Illustrator 24.2.1, SVG Export Plug-In . SVG Version: 6.00 Build 0)  -->
<svg version="1.1" id="Calque_1" xmlns="http://www.w3.org/2000/svg" xmlns:xlink="http://www.w3.org/1999/xlink" x="0px" y="0px"
	 viewBox="0 0 55 41.4" style="enable-background:new 0 0 55 41.4;" xml:space="preserve">
<path d="M44.9,22.6c-0.1,0-0.3,0-0.4-0.1c-0.5-0.2-0.7-0.8-0.5-1.3c0.4-1,0.7-2.1,0.7-3.2c0-4.6-3.7-8.3-8.3-8.3
	c-2.5,0-4.8,1.1-6.4,3c-0.4,0.4-1,0.5-1.4,0.1c-0.4-0.4-0.5-1-0.1-1.4c2-2.3,4.8-3.7,7.9-3.7c5.7,0,10.3,4.6,10.3,10.3
	c0,1.4-0.3,2.7-0.8,4C45.6,22.4,45.3,22.6,44.9,22.6z"/>
<path d="M28.7,8.7c-0.3,0-0.5-0.1-0.7-0.3l-3-3.3c-0.4-0.4-0.3-1,0.1-1.4c0.4-0.4,1-0.3,1.4,0.1l3,3.3c0.4,0.4,0.3,1-0.1,1.4
	C29.2,8.7,29,8.7,28.7,8.7z"/>
<path d="M38.7,5.8c-0.6,0-1-0.4-1-1V1c0-0.6,0.4-1,1-1s1,0.4,1,1v3.8C39.7,5.4,39.3,5.8,38.7,5.8z"/>
<path d="M46.9,10.8c-0.3,0-0.5-0.1-0.7-0.3c-0.4-0.4-0.4-1,0-1.4l3.2-3.2c0.4-0.4,1-0.4,1.4,0s0.4,1,0,1.4l-3.2,3.2
	C47.4,10.7,47.2,10.8,46.9,10.8z"/>
<path d="M54,18.2h-5.1c-0.6,0-1-0.4-1-1s0.4-1,1-1H54c0.6,0,1,0.4,1,1S54.5,18.2,54,18.2z"/>
<path d="M37.2,41.4H10.3C4.6,41.4,0,36.8,0,31.1s4.6-10.3,10.3-10.3c1,0,2.1,0.2,3,0.5c1.4-5,5.9-8.4,11.2-8.4
	c5.1,0,9.6,3.4,11.1,8.1c0.5-0.1,1.1-0.1,1.6-0.1c5.7,0,10.3,4.6,10.3,10.3C47.5,36.8,42.9,41.4,37.2,41.4z M10.3,22.8
	c-4.6,0-8.3,3.7-8.3,8.3c0,4.6,3.7,8.3,8.3,8.3h26.9c4.6,0,8.3-3.7,8.3-8.3c0-5.3-4.9-9.4-10.4-8c-0.3,0.1-0.5,0-0.8-0.1
	c-0.2-0.1-0.4-0.4-0.5-0.6c-1-4.3-4.9-7.5-9.4-7.5c-4.7,0-8.7,3.3-9.5,8c-0.1,0.3-0.2,0.6-0.5,0.7c-0.3,0.1-0.6,0.2-0.9,0
	C12.6,23,11.5,22.8,10.3,22.8z"/>
</svg>
