<?xml version="1.0" encoding="utf-8"?>
<!-- Generator: Adobe Illustrator 24.2.1, SVG Export Plug-In . SVG Version: 6.00 Build 0)  -->
<svg version="1.1" id="Calque_1" xmlns="http://www.w3.org/2000/svg" xmlns:xlink="http://www.w3.org/1999/xlink" x="0px" y="0px"
	 viewBox="0 0 47.5 28.6" style="enable-background:new 0 0 47.5 28.6;" xml:space="preserve">
<path d="M37.2,28.6H10.3C4.6,28.6,0,24,0,18.3C0,12.6,4.6,8,10.3,8c1,0,2.1,0.2,3,0.5c1.4-5,5.9-8.4,11.2-8.4
	c5.1,0,9.6,3.4,11.1,8.1C36.1,8,36.7,8,37.2,8c5.7,0,10.3,4.6,10.3,10.3S42.9,28.6,37.2,28.6z M10.3,10C5.7,10,2,13.7,2,18.3
	s3.7,8.3,8.3,8.3h26.9c4.6,0,8.3-3.7,8.3-8.3c0-5.3-4.9-9.4-10.4-8c-0.3,0.1-0.5,0-0.8-0.1c-0.2-0.1-0.4-0.4-0.5-0.6
	C32.9,5.2,29,2,24.5,2c-4.7,0-8.7,3.3-9.5,8c-0.1,0.3-0.2,0.6-0.5,0.7c-0.3,0.1-0.6,0.2-0.9,0C12.6,10.2,11.5,10,10.3,10z"/>
</svg>
