<?xml version="1.0" encoding="utf-8"?>
<!-- Generator: Adobe Illustrator 24.2.1, SVG Export Plug-In . SVG Version: 6.00 Build 0)  -->
<svg version="1.1" id="Calque_1" xmlns="http://www.w3.org/2000/svg" xmlns:xlink="http://www.w3.org/1999/xlink" x="0px" y="0px"
	 viewBox="0 0 46.4 46.4" style="enable-background:new 0 0 46.4 46.4;" xml:space="preserve">
<path d="M23.2,35.7c-6.9,0-12.5-5.6-12.5-12.5c0-6.9,5.6-12.5,12.5-12.5s12.5,5.6,12.5,12.5C35.7,30.1,30.1,35.7,23.2,35.7z
	 M23.2,12.7c-5.8,0-10.5,4.7-10.5,10.5s4.7,10.5,10.5,10.5c5.8,0,10.5-4.7,10.5-10.5S29,12.7,23.2,12.7z"/>
<path d="M23.2,8.4c-0.6,0-1-0.4-1-1V1c0-0.6,0.4-1,1-1s1,0.4,1,1v6.4C24.2,8,23.8,8.4,23.2,8.4z"/>
<path d="M23.2,46.4c-0.6,0-1-0.4-1-1V39c0-0.6,0.4-1,1-1s1,0.4,1,1v6.4C24.2,46,23.8,46.4,23.2,46.4z"/>
<path d="M45.4,24.2H39c-0.6,0-1-0.4-1-1s0.4-1,1-1h6.4c0.6,0,1,0.4,1,1S46,24.2,45.4,24.2z"/>
<path d="M7.4,24.2H1c-0.6,0-1-0.4-1-1s0.4-1,1-1h6.4c0.6,0,1,0.4,1,1S8,24.2,7.4,24.2z"/>
<path d="M12,13c-0.3,0-0.5-0.1-0.7-0.3L6.8,8.2c-0.4-0.4-0.4-1,0-1.4s1-0.4,1.4,0l4.5,4.5c0.4,0.4,0.4,1,0,1.4
	C12.5,12.9,12.3,13,12,13z"/>
<path d="M38.9,39.9c-0.3,0-0.5-0.1-0.7-0.3L33.6,35c-0.4-0.4-0.4-1,0-1.4s1-0.4,1.4,0l4.6,4.6c0.4,0.4,0.4,1,0,1.4
	C39.4,39.8,39.2,39.9,38.9,39.9z"/>
<path d="M34.3,13c-0.3,0-0.5-0.1-0.7-0.3c-0.4-0.4-0.4-1,0-1.4l4.6-4.5c0.4-0.4,1-0.4,1.4,0c0.4,0.4,0.4,1,0,1.4L35,12.7
	C34.8,12.9,34.6,13,34.3,13z"/>
<path d="M7.5,39.9c-0.3,0-0.5-0.1-0.7-0.3c-0.4-0.4-0.4-1,0-1.4l4.5-4.6c0.4-0.4,1-0.4,1.4,0c0.4,0.4,0.4,1,0,1.4l-4.5,4.6
	C8,39.8,7.8,39.9,7.5,39.9z"/>
</svg>
